<svg width="227" height="53" viewBox="0 0 227 53" fill="none" xmlns="http://www.w3.org/2000/svg">
<path d="M0.584 22.104C0.584 18.776 1.304 15.816 2.744 13.224C4.184 10.6 6.184 8.568 8.744 7.128C11.336 5.656 14.264 4.92 17.528 4.92C21.528 4.92 24.952 5.976 27.8 8.088C30.648 10.2 32.552 13.08 33.512 16.728H24.488C23.816 15.32 22.856 14.248 21.608 13.512C20.392 12.776 19 12.408 17.432 12.408C14.904 12.408 12.856 13.288 11.288 15.048C9.72 16.808 8.936 19.16 8.936 22.104C8.936 25.048 9.72 27.4 11.288 29.16C12.856 30.92 14.904 31.8 17.432 31.8C19 31.8 20.392 31.432 21.608 30.696C22.856 29.96 23.816 28.888 24.488 27.48H33.512C32.552 31.128 30.648 34.008 27.8 36.12C24.952 38.2 21.528 39.24 17.528 39.24C14.264 39.24 11.336 38.52 8.744 37.08C6.184 35.608 4.184 33.576 2.744 30.984C1.304 28.392 0.584 25.432 0.584 22.104ZM50.7305 39.384C48.1065 39.384 45.7385 38.824 43.6265 37.704C41.5465 36.584 39.8985 34.984 38.6825 32.904C37.4985 30.824 36.9065 28.392 36.9065 25.608C36.9065 22.856 37.5145 20.44 38.7305 18.36C39.9465 16.248 41.6105 14.632 43.7225 13.512C45.8345 12.392 48.2025 11.832 50.8265 11.832C53.4505 11.832 55.8185 12.392 57.9305 13.512C60.0425 14.632 61.7065 16.248 62.9225 18.36C64.1385 20.44 64.7465 22.856 64.7465 25.608C64.7465 28.36 64.1225 30.792 62.8745 32.904C61.6585 34.984 59.9785 36.584 57.8345 37.704C55.7225 38.824 53.3545 39.384 50.7305 39.384ZM50.7305 32.28C52.2985 32.28 53.6265 31.704 54.7145 30.552C55.8345 29.4 56.3945 27.752 56.3945 25.608C56.3945 23.464 55.8505 21.816 54.7625 20.664C53.7065 19.512 52.3945 18.936 50.8265 18.936C49.2265 18.936 47.8985 19.512 46.8425 20.664C45.7865 21.784 45.2585 23.432 45.2585 25.608C45.2585 27.752 45.7705 29.4 46.7945 30.552C47.8505 31.704 49.1625 32.28 50.7305 32.28ZM95.549 12.216V39H87.341V35.352C86.509 36.536 85.373 37.496 83.933 38.232C82.525 38.936 80.957 39.288 79.229 39.288C77.181 39.288 75.373 38.84 73.805 37.944C72.237 37.016 71.021 35.688 70.157 33.96C69.293 32.232 68.861 30.2 68.861 27.864V12.216H77.021V26.76C77.021 28.552 77.485 29.944 78.413 30.936C79.341 31.928 80.589 32.424 82.157 32.424C83.757 32.424 85.021 31.928 85.949 30.936C86.877 29.944 87.341 28.552 87.341 26.76V12.216H95.549ZM117.765 11.928C120.901 11.928 123.397 12.952 125.253 15C127.141 17.016 128.085 19.8 128.085 23.352V39H119.925V24.456C119.925 22.664 119.461 21.272 118.533 20.28C117.605 19.288 116.357 18.792 114.789 18.792C113.221 18.792 111.973 19.288 111.045 20.28C110.117 21.272 109.653 22.664 109.653 24.456V39H101.445V12.216H109.653V15.768C110.485 14.584 111.605 13.656 113.013 12.984C114.421 12.28 116.005 11.928 117.765 11.928ZM148.717 32.04V39H144.541C141.565 39 139.245 38.28 137.581 36.84C135.917 35.368 135.085 32.984 135.085 29.688V19.032H131.821V12.216H135.085V5.688H143.293V12.216H148.669V19.032H143.293V29.784C143.293 30.584 143.485 31.16 143.869 31.512C144.253 31.864 144.893 32.04 145.789 32.04H148.717ZM157.417 9.432C155.977 9.432 154.793 9.016 153.865 8.184C152.969 7.32 152.521 6.264 152.521 5.016C152.521 3.736 152.969 2.68 153.865 1.848C154.793 0.983997 155.977 0.551997 157.417 0.551997C158.825 0.551997 159.977 0.983997 160.873 1.848C161.801 2.68 162.265 3.736 162.265 5.016C162.265 6.264 161.801 7.32 160.873 8.184C159.977 9.016 158.825 9.432 157.417 9.432ZM161.497 12.216V39H153.289V12.216H161.497ZM177.621 11.832C179.509 11.832 181.157 12.216 182.565 12.984C184.005 13.752 185.109 14.76 185.877 16.008V12.216H194.085V38.952C194.085 41.416 193.589 43.64 192.597 45.624C191.637 47.64 190.149 49.24 188.133 50.424C186.149 51.608 183.669 52.2 180.693 52.2C176.725 52.2 173.509 51.256 171.045 49.368C168.581 47.512 167.173 44.984 166.821 41.784H174.933C175.189 42.808 175.797 43.608 176.757 44.184C177.717 44.792 178.901 45.096 180.309 45.096C182.005 45.096 183.349 44.6 184.341 43.608C185.365 42.648 185.877 41.096 185.877 38.952V35.16C185.077 36.408 183.973 37.432 182.565 38.232C181.157 39 179.509 39.384 177.621 39.384C175.413 39.384 173.413 38.824 171.621 37.704C169.829 36.552 168.405 34.936 167.349 32.856C166.325 30.744 165.813 28.312 165.813 25.56C165.813 22.808 166.325 20.392 167.349 18.312C168.405 16.232 169.829 14.632 171.621 13.512C173.413 12.392 175.413 11.832 177.621 11.832ZM185.877 25.608C185.877 23.56 185.301 21.944 184.149 20.76C183.029 19.576 181.653 18.984 180.021 18.984C178.389 18.984 176.997 19.576 175.845 20.76C174.725 21.912 174.165 23.512 174.165 25.56C174.165 27.608 174.725 29.24 175.845 30.456C176.997 31.64 178.389 32.232 180.021 32.232C181.653 32.232 183.029 31.64 184.149 30.456C185.301 29.272 185.877 27.656 185.877 25.608ZM212.215 39.384C209.591 39.384 207.223 38.824 205.111 37.704C203.031 36.584 201.383 34.984 200.167 32.904C198.983 30.824 198.391 28.392 198.391 25.608C198.391 22.856 198.999 20.44 200.215 18.36C201.431 16.248 203.095 14.632 205.207 13.512C207.319 12.392 209.687 11.832 212.311 11.832C214.935 11.832 217.303 12.392 219.415 13.512C221.527 14.632 223.191 16.248 224.407 18.36C225.623 20.44 226.231 22.856 226.231 25.608C226.231 28.36 225.607 30.792 224.359 32.904C223.143 34.984 221.463 36.584 219.319 37.704C217.207 38.824 214.839 39.384 212.215 39.384ZM212.215 32.28C213.783 32.28 215.111 31.704 216.199 30.552C217.319 29.4 217.879 27.752 217.879 25.608C217.879 23.464 217.335 21.816 216.247 20.664C215.191 19.512 213.879 18.936 212.311 18.936C210.711 18.936 209.383 19.512 208.327 20.664C207.271 21.784 206.743 23.432 206.743 25.608C206.743 27.752 207.255 29.4 208.279 30.552C209.335 31.704 210.647 32.28 212.215 32.28Z" fill="url(#paint0_linear_5_63)" fill-opacity="0.44"/>
<defs>
<linearGradient id="paint0_linear_5_63" x1="114.095" y1="14.7903" x2="-13.1557" y2="13.8206" gradientUnits="userSpaceOnUse">
<stop offset="0.0347037" stop-color="#CDBE91"/>
<stop offset="0.196169" stop-color="#ADAA8D"/>
<stop offset="0.789943" stop-color="#365F7E"/>
<stop offset="0.883697" stop-color="#23537C"/>
<stop offset="1" stop-color="#0C4479"/>
</linearGradient>
</defs>
</svg>
